<mxfile host="65bd71144e" modified="2020-10-07T20:58:22.736Z" agent="5.0 (Macintosh; Intel Mac OS X 10_15_7) AppleWebKit/537.36 (KHTML, like Gecko) Code/1.49.3 Chrome/83.0.4103.122 Electron/9.2.1 Safari/537.36" etag="ur52l9GbX49sYgC7PWtT" version="13.6.5">
    <diagram id="PWE_gUi0D3ESexed-gmH" name="Page-1">
        <mxGraphModel dx="247" dy="377" grid="1" gridSize="10" guides="1" tooltips="1" connect="1" arrows="1" fold="1" page="1" pageScale="1" pageWidth="850" pageHeight="1100" math="0" shadow="0">
            <root>
                <mxCell id="0"/>
                <mxCell id="1" parent="0"/>
                <mxCell id="19" value="SceneGenerator" style="swimlane;fontStyle=1;align=center;verticalAlign=top;childLayout=stackLayout;horizontal=1;startSize=26;horizontalStack=0;resizeParent=1;resizeParentMax=0;resizeLast=0;collapsible=1;marginBottom=0;" parent="1" vertex="1">
                    <mxGeometry x="550" y="30" width="510" height="470" as="geometry"/>
                </mxCell>
                <mxCell id="20" value="+ storyline: string&#10;+ monsterEncount: Encounter?&#10;+ hero: SuperHero&#10;+ choiceQestion: String&#10;+ choiceAnswer: String&#10;+ sidekick: SuperHero&#10;+ enemy: Monster&#10;&#10;" style="text;strokeColor=none;fillColor=none;align=left;verticalAlign=top;spacingLeft=4;spacingRight=4;overflow=hidden;rotatable=0;points=[[0,0.5],[1,0.5]];portConstraint=eastwest;" parent="19" vertex="1">
                    <mxGeometry y="26" width="510" height="274" as="geometry"/>
                </mxCell>
                <mxCell id="21" value="" style="line;strokeWidth=1;fillColor=none;align=left;verticalAlign=middle;spacingTop=-1;spacingLeft=3;spacingRight=3;rotatable=0;labelPosition=right;points=[];portConstraint=eastwest;" parent="19" vertex="1">
                    <mxGeometry y="300" width="510" height="8" as="geometry"/>
                </mxCell>
                <mxCell id="22" value="+ SceneGernerator(String,SuperHero, SuperHero, String, String, Monster): SceneGenerator  &#10;+ SceneGernerator(String, String, String): SceneGenerator&#10;+ printStoryline(): void&#10;+ makeChoice():  String  &#10;+ startEncounter(): void&#10;&#10;" style="text;strokeColor=none;fillColor=none;align=left;verticalAlign=top;spacingLeft=4;spacingRight=4;overflow=hidden;rotatable=0;points=[[0,0.5],[1,0.5]];portConstraint=eastwest;" parent="19" vertex="1">
                    <mxGeometry y="308" width="510" height="162" as="geometry"/>
                </mxCell>
            </root>
        </mxGraphModel>
    </diagram>
</mxfile>